# xmcd
#
# Track frame offsets: 
#        150
#        16822
#        35463
#        51410
#        78879
#        110570
#        127775
#        157654
#        178154
#        197457
#
# Disc length: 3116 seconds
#
# Revision: 0
# Processed by: cddbd v1.5.2PL0 Copyright (c) Steve Scherf et al.
# Submitted via: ExactAudioCopy v1.3
#
DISCID=6f0c2a0a
DTITLE=Stef Paglia - Never Forget
DYEAR=2019
DGENRE=Blues Rock
TTITLE0=Watch Out
TTITLE1=Take Me Away
TTITLE2=Freedom
TTITLE3=The Dead Tree
TTITLE4=Mystery Heaven
TTITLE5=Twilight
TTITLE6=Dirty Woman
TTITLE7=Crush On You
TTITLE8=The Unknown
TTITLE9=Warmth Instead Of Cold
EXTD=
EXTT0=
EXTT1=
EXTT2=
EXTT3=
EXTT4=
EXTT5=
EXTT6=
EXTT7=
EXTT8=
EXTT9=
PLAYORDER=
